REM Ripping Tool: trurip

FILE "Himitsu no Hanazono (1993)(Tokumashoten Intermedia)(JP).img" BINARY
  TRACK 01 AUDIO
    INDEX 01 00:00:00
  TRACK 02 MODE1/2352
    INDEX 00 00:44:65
    INDEX 01 00:47:65
  TRACK 03 AUDIO
    INDEX 00 09:39:31
    INDEX 01 09:41:31
  TRACK 04 AUDIO
    INDEX 01 11:30:48

REM DISC HASHES
REM CRC32 : aaffb95a
REM MD5   : a1479377aea3b7cdad9e6d9ab1234482
REM SHA1  : 7275995f962463d5759246d50fd2ad1d6850959f

REM Gap Append Method: Prev [crc32]
REM Trk 01: ccd25d2f
REM Trk 02: 7e537cbc
REM Trk 03: 0e6d652a
REM Trk 04: f8c5c06b

REM Gap Append Method: Prev [md5]
REM Trk 01: 7938d9aa88f644b60389fa8246f2052e
REM Trk 02: 86105c512e68b6742a540fb4f19bbb9f
REM Trk 03: 81bc66fd02902fc3077ed939638345e4
REM Trk 04: 3d9923bb1f5a29d98ecde085daa9033d

REM Gap Append Method: Prev [sha1]
REM Trk 01: 0fc7f8840f23f43ebfb7041f71427c165f368105
REM Trk 02: 25bcd5d34848790fa34db4c0970be4348d4115ff
REM Trk 03: 456c3177c44a399e1dea7f0bcd5e3bdd75b47095
REM Trk 04: 63d13c569c52d7e2c2e2ac24c0a6576b403e4852

REM Gap Append Method: None [crc32]
REM Trk 01: b979500c
REM Trk 02: 0c5fac0a
REM Trk 03: 0e6d652a
REM Trk 04: f8c5c06b
REM Gap 02: 16e86594
REM Gap 03: 7abe247f

REM Gap Append Method: None [md5]
REM Trk 01: a25a2c129b7100092cc40e9b6e176a63
REM Trk 02: e0ae6558c53dfcbaf51eeb61b965c4c4
REM Trk 03: 81bc66fd02902fc3077ed939638345e4
REM Trk 04: 3d9923bb1f5a29d98ecde085daa9033d
REM Gap 02: fbd314ec9876f082e173fbb5baf092aa
REM Gap 03: 9df204fbc98bb8965081cb30a89715fc

REM Gap Append Method: None [sha1]
REM Trk 01: 9ac3f1a11d434d186466917f1c7955bf7670c910
REM Trk 02: 59a8ff4a835b93f76df81093f98a1d71a9c98ab8
REM Trk 03: 456c3177c44a399e1dea7f0bcd5e3bdd75b47095
REM Trk 04: 63d13c569c52d7e2c2e2ac24c0a6576b403e4852
REM Gap 02: 08a9af7bae10b281a8edaad6e9ea6cd1646d0ce0
REM Gap 03: cbe29e0bd725ef1194f8c47619dd42078e841de2

REM Gap Append Method: Next [crc32]
REM Trk 01: b979500c
REM Trk 02: 25fcfe1c
REM Trk 03: f6061d59
REM Trk 04: f8c5c06b

REM Gap Append Method: Next [md5]
REM Trk 01: a25a2c129b7100092cc40e9b6e176a63
REM Trk 02: 6f619bd44099d218faff44ee58d29428
REM Trk 03: 47b15ce98fa0dc2355c8f8e24a01f036
REM Trk 04: 3d9923bb1f5a29d98ecde085daa9033d

REM Gap Append Method: Next [sha1]
REM Trk 01: 9ac3f1a11d434d186466917f1c7955bf7670c910
REM Trk 02: 75d17f136c7dc8d0a614e8705257b4eb2a03427a
REM Trk 03: c054cfd3b11fda1f9ec80eef70a02ad869d60d0c
REM Trk 04: 63d13c569c52d7e2c2e2ac24c0a6576b403e4852

